<svg fill="none"
    height="180"
    viewBox="0 0 191 180"
    width="191"
    xmlns="http://www.w3.org/2000/svg"
    >
    <path
        d="M63.298 42.6253L66.9396 31.668C67.1058 31.2835 67.3497 30.9375 67.656 30.6518C67.9623 30.3661 68.3244 30.1468 68.7195 30.0077C69.1146 29.8685 69.5341 29.8126 69.9519 29.8434C70.3696 29.8742 70.7765 29.991 71.1469 30.1866C76.0922 32.8101 87.0064 37.2867 90.9928 38.6712C83.3486 41.3917 72.1435 46.7679 66.6918 46.1915C64.6232 45.976 62.4522 44.5323 63.298 42.6253V42.6253ZM8.29609 175.007C10.4455 176.219 43.3605 184.122 108.609 127.03C128.363 109.743 186.99 57.2404 186.231 55.4519C186.231 55.4519 188.003 57.3912 189.474 59.4168C190.535 60.8766 191.192 62.4281 190.95 63.985C189.28 74.5813 174.185 84.5582 153.445 100.515L150.488 102.788L148.532 104.291C145.364 106.726 136.056 114.068 125.211 122.623C110.381 134.318 80.585 157.585 79.7177 158.232C68.2972 166.711 54.7487 173.407 38.4151 178.013C17.7396 183.836 8.29609 175.007 8.29609 175.007Z"
        fill="#8899A6"
        />
    <path
        d="M8.29613 175.007C8.29613 175.007 5.72649 173.827 3.07067 170.062C0.414854 166.296 -1.1851 159.697 2.82826 152.564C6.84161 145.437 21.4459 124.977 26.235 116.627C28.5676 112.56 27.835 108.832 32.2955 101.355C32.2955 101.355 49.3401 71.6023 53.1111 65.1378C61.1755 51.3092 57.6362 44.1175 63.0071 39.991C66.5895 37.2382 102.365 40.8853 113.252 32.5084C120.778 26.7227 120.891 8.65452 124.042 2.73953C126.553 -1.97415 134.924 0.180674 140.672 3.3321C146.42 6.48353 162.075 23.7437 165.857 28.662C169.639 33.5804 174.481 38.9459 174.902 44.4354L175.327 49.9194C175.327 49.9194 89.8831 131.533 65.5659 147.996C24.1017 176.068 8.29613 175.007 8.29613 175.007V175.007Z"
        fill="#BE1931"
        />
    <path
        d="M60.1789 44.2306C60.7337 42.5391 61.5203 41.1331 63.0071 39.9856C66.5895 37.2329 102.365 40.8853 113.252 32.503C120.778 26.7173 120.891 8.64374 124.042 2.73414C125.023 0.897149 126.908 0.121414 129.171 0.0298338C125.454 7.57172 125.826 30.0573 116.716 37.0605C105.737 45.5128 73.5334 43.164 60.1789 44.2306Z"
        fill="#A0041E"
        />
    <path
        d="M121.995 84.1434C119.275 76.2136 116.371 57.666 121.597 46.6387C126.494 36.3117 145.521 14.5587 149.135 10.4376C155.815 16.3903 164.742 26.8035 167.435 30.3051C170.991 34.9272 175.273 40.1203 175.483 45.3943C175.559 47.2905 175.015 48.1417 175.015 48.1417C175.015 48.1417 122.103 84.4558 121.995 84.1434V84.1434Z"
        fill="#DD2E44"
        />
    <path
        d="M68.9759 64.6584C70.0323 64.6645 71.0573 64.2999 71.8726 63.6282C72.6879 62.9564 73.2418 62.02 73.4379 60.982C73.634 59.944 73.4598 58.87 72.9457 57.9472C72.4316 57.0243 71.6102 56.311 70.6243 55.9313L60.8037 52.0796C59.7028 51.7087 58.5014 51.7755 57.4483 52.2661C56.3953 52.7566 55.5712 53.6334 55.1468 54.7148C54.7224 55.7963 54.7302 56.9995 55.1685 58.0753C55.6068 59.1512 56.4422 60.0173 57.5015 60.4942L67.3221 64.3459C67.8493 64.5516 68.41 64.6576 68.9759 64.6584ZM61.7195 81.1589C62.7172 81.1637 63.6884 80.8378 64.4813 80.2321C65.2741 79.6265 65.844 78.7753 66.1019 77.8115C66.3598 76.8476 66.2911 75.8256 65.9066 74.9049C65.5221 73.9843 64.8435 73.2169 63.9767 72.7228L54.3177 67.1687C53.2819 66.6149 52.0711 66.4861 50.9419 66.8096C49.8128 67.133 48.8539 67.8834 48.2684 68.9017C47.6829 69.92 47.5168 71.1262 47.8054 72.2648C48.0939 73.4034 48.8144 74.385 49.8141 75.0015L59.4731 80.5556C60.1558 80.9509 60.9307 81.159 61.7195 81.1589ZM51.9097 95.9841C52.8604 95.9872 53.7878 95.69 54.5597 95.1349C55.3316 94.5799 55.9086 93.7953 56.2083 92.8931C56.5081 91.9909 56.5153 91.017 56.229 90.1104C55.9427 89.2038 55.3775 88.4107 54.614 87.8443L46.458 81.7623C45.4935 81.1268 44.3226 80.8841 43.185 81.084C42.0475 81.2839 41.0294 81.9112 40.3394 82.8375C39.6493 83.7637 39.3396 84.9187 39.4736 86.0659C39.6076 87.2131 40.1752 88.2656 41.0602 89.0079L49.2162 95.0845C49.992 95.6698 50.9378 95.9857 51.9097 95.9841V95.9841ZM41.4319 109.834C42.3626 109.831 43.2699 109.542 44.03 109.005C44.7901 108.467 45.366 107.709 45.6794 106.833C45.9927 105.956 46.0282 105.004 45.781 104.107C45.5337 103.21 45.0158 102.411 44.2978 101.818L38.0757 96.7114C37.143 96.0148 35.9778 95.7044 34.8221 95.8448C33.6665 95.9852 32.6095 96.5656 31.8707 97.4653C31.132 98.3649 30.7684 99.5147 30.8555 100.676C30.9426 101.836 31.4737 102.919 32.3385 103.698L38.5606 108.805C39.3702 109.469 40.3847 109.833 41.4319 109.834V109.834ZM176.216 45.8252C176.216 45.8252 172.58 49.1221 168.54 49.7362C164.499 50.3504 157.34 54.8539 152.416 58.641C147.492 62.4281 128.718 76.3752 117.217 87.9682C105.716 99.5611 87.6151 123.415 80.5796 130.327C73.5441 137.233 62.1936 147.527 52.4915 153.744C42.7894 159.961 33.8792 165.224 28.1635 168.214C20.794 172.071 13.9848 174.377 8.29607 175.007C10.2785 176.17 20.7563 180.103 38.9484 173.903C56.3379 167.971 67.6722 161.545 77.0403 154.585C86.4084 147.624 137.419 107.135 145.774 100.709C154.129 94.2818 179.109 75.2386 183.052 69.5337C188.655 61.4315 188.385 57.8868 187.297 56.4754C184.647 53.0223 179.05 43.6435 176.216 45.8252V45.8252Z"
        fill="#CCD6DD"
        />
    <path
        d="M2.82819 152.564C6.84155 145.437 21.4459 124.977 26.235 116.627C27.1723 114.99 27.6194 113.4 28.1043 111.612C28.5945 111.795 29.1224 111.903 29.5534 112.199C35.7701 116.466 35.7377 129.357 26.4774 142.835C19.054 153.642 7.13785 161.97 0.447125 162.099C0.307062 159.201 0.921173 155.947 2.82819 152.564Z"
        fill="#DD2E44"
        />
    <path
        d="M120.397 162.87C120.435 162.646 120.416 162.458 120.34 162.306C120.268 162.149 120.158 162.018 120.01 161.912C119.866 161.802 119.703 161.709 119.521 161.633C119.343 161.556 119.166 161.487 118.988 161.423C118.662 161.296 118.34 161.152 118.023 160.992C117.71 160.831 117.424 160.64 117.166 160.42C116.908 160.196 116.707 159.936 116.563 159.639C116.419 159.339 116.36 158.988 116.385 158.586C116.415 158.129 116.544 157.733 116.773 157.399C117.001 157.064 117.291 156.792 117.642 156.58C117.998 156.364 118.383 156.205 118.798 156.104C119.216 156.002 119.627 155.956 120.029 155.964C120.604 155.973 121.117 156.093 121.565 156.326C122.014 156.555 122.365 156.88 122.619 157.304C122.877 157.723 122.998 158.226 122.981 158.814H121.14C121.157 158.535 121.121 158.294 121.032 158.091C120.947 157.883 120.81 157.725 120.619 157.615C120.433 157.5 120.194 157.439 119.902 157.431C119.652 157.426 119.407 157.466 119.166 157.551C118.929 157.632 118.723 157.758 118.55 157.932C118.381 158.101 118.275 158.321 118.233 158.592C118.199 158.791 118.226 158.962 118.315 159.106C118.408 159.25 118.533 159.373 118.69 159.474C118.85 159.576 119.02 159.663 119.197 159.735C119.379 159.802 119.542 159.864 119.686 159.919C120.029 160.042 120.359 160.188 120.676 160.357C120.998 160.526 121.282 160.727 121.527 160.96C121.772 161.188 121.961 161.459 122.092 161.772C122.223 162.081 122.276 162.441 122.251 162.851C122.213 163.321 122.086 163.723 121.87 164.057C121.654 164.388 121.375 164.658 121.032 164.87C120.689 165.077 120.315 165.23 119.908 165.327C119.502 165.424 119.09 165.471 118.671 165.467C118.214 165.458 117.784 165.386 117.382 165.251C116.98 165.115 116.629 164.921 116.328 164.667C116.028 164.409 115.795 164.093 115.63 163.721C115.469 163.344 115.395 162.915 115.408 162.432L117.268 162.439C117.251 162.697 117.27 162.923 117.325 163.118C117.384 163.308 117.477 163.469 117.604 163.6C117.735 163.732 117.896 163.831 118.087 163.899C118.281 163.962 118.508 163.996 118.766 164C119.015 164 119.257 163.962 119.489 163.886C119.722 163.81 119.921 163.689 120.086 163.524C120.251 163.355 120.355 163.137 120.397 162.87ZM126.396 155.583L124.701 165.333H122.917L124.612 155.583H126.396ZM125.101 161.658L124.637 161.664C124.684 161.275 124.775 160.882 124.91 160.484C125.05 160.086 125.238 159.724 125.475 159.398C125.712 159.068 126.002 158.806 126.345 158.611C126.692 158.412 127.094 158.319 127.551 158.332C127.936 158.34 128.256 158.419 128.509 158.567C128.768 158.711 128.969 158.907 129.112 159.157C129.256 159.403 129.352 159.684 129.398 160.001C129.445 160.314 129.449 160.645 129.411 160.992L128.687 165.333H126.891L127.627 160.973C127.653 160.748 127.646 160.547 127.608 160.369C127.574 160.188 127.492 160.044 127.361 159.938C127.234 159.828 127.045 159.771 126.796 159.766C126.521 159.758 126.284 159.807 126.085 159.912C125.89 160.018 125.725 160.164 125.59 160.35C125.454 160.532 125.348 160.738 125.272 160.966C125.196 161.19 125.139 161.421 125.101 161.658ZM130.331 162.007L130.35 161.874C130.401 161.387 130.517 160.93 130.699 160.503C130.886 160.071 131.131 159.692 131.436 159.367C131.745 159.036 132.106 158.78 132.521 158.598C132.94 158.412 133.41 158.326 133.93 158.338C134.425 158.347 134.853 158.446 135.213 158.637C135.572 158.827 135.866 159.083 136.095 159.405C136.328 159.726 136.491 160.094 136.584 160.509C136.681 160.924 136.708 161.362 136.666 161.823L136.653 161.963C136.598 162.445 136.476 162.9 136.285 163.327C136.099 163.751 135.852 164.125 135.543 164.451C135.238 164.773 134.876 165.024 134.457 165.206C134.038 165.388 133.573 165.473 133.061 165.46C132.574 165.452 132.149 165.355 131.785 165.168C131.421 164.978 131.125 164.724 130.896 164.407C130.668 164.085 130.507 163.719 130.414 163.308C130.321 162.898 130.293 162.464 130.331 162.007ZM132.134 161.874L132.121 162.014C132.1 162.217 132.094 162.435 132.102 162.667C132.111 162.896 132.147 163.114 132.21 163.321C132.278 163.528 132.388 163.698 132.54 163.829C132.693 163.96 132.902 164.03 133.169 164.038C133.452 164.047 133.695 163.99 133.899 163.867C134.102 163.744 134.269 163.579 134.4 163.372C134.531 163.16 134.635 162.932 134.711 162.686C134.787 162.437 134.838 162.193 134.863 161.956L134.876 161.823C134.893 161.62 134.897 161.402 134.889 161.169C134.885 160.932 134.849 160.71 134.781 160.503C134.713 160.291 134.603 160.118 134.451 159.982C134.299 159.847 134.089 159.775 133.822 159.766C133.539 159.754 133.296 159.813 133.092 159.944C132.889 160.071 132.722 160.24 132.591 160.452C132.46 160.664 132.356 160.894 132.28 161.144C132.208 161.394 132.159 161.637 132.134 161.874ZM140.367 165.46C139.897 165.452 139.474 165.363 139.097 165.194C138.721 165.02 138.405 164.783 138.152 164.483C137.902 164.182 137.718 163.833 137.599 163.435C137.481 163.038 137.438 162.61 137.472 162.153L137.498 161.893C137.549 161.415 137.665 160.96 137.847 160.528C138.029 160.097 138.272 159.716 138.577 159.386C138.882 159.051 139.241 158.791 139.656 158.605C140.075 158.414 140.54 158.326 141.052 158.338C141.531 158.347 141.939 158.444 142.278 158.63C142.616 158.816 142.889 159.066 143.096 159.379C143.304 159.692 143.445 160.05 143.522 160.452C143.598 160.85 143.613 161.267 143.566 161.702L143.465 162.464H138.158L138.355 161.245L141.859 161.252L141.89 161.093C141.924 160.86 141.914 160.645 141.859 160.446C141.804 160.243 141.7 160.08 141.548 159.957C141.395 159.834 141.192 159.769 140.938 159.76C140.646 159.752 140.401 159.813 140.202 159.944C140.003 160.075 139.84 160.249 139.713 160.465C139.586 160.681 139.489 160.915 139.421 161.169C139.353 161.419 139.305 161.66 139.275 161.893L139.25 162.147C139.229 162.371 139.235 162.595 139.269 162.82C139.303 163.04 139.368 163.239 139.465 163.416C139.567 163.594 139.705 163.738 139.878 163.848C140.056 163.958 140.278 164.017 140.545 164.026C140.883 164.034 141.194 163.969 141.478 163.829C141.765 163.685 142.024 163.495 142.252 163.258L143.052 164.223C142.861 164.51 142.618 164.747 142.322 164.933C142.03 165.115 141.715 165.249 141.376 165.333C141.038 165.422 140.701 165.465 140.367 165.46ZM147.94 163.397C147.973 163.194 147.923 163.038 147.787 162.928C147.652 162.813 147.485 162.727 147.286 162.667C147.091 162.608 146.922 162.562 146.778 162.528C146.524 162.46 146.268 162.375 146.01 162.274C145.756 162.168 145.525 162.037 145.318 161.88C145.111 161.724 144.946 161.533 144.823 161.309C144.7 161.08 144.645 160.812 144.658 160.503C144.671 160.135 144.764 159.815 144.937 159.544C145.115 159.269 145.343 159.043 145.623 158.865C145.902 158.683 146.207 158.548 146.537 158.459C146.867 158.37 147.195 158.33 147.521 158.338C147.978 158.342 148.401 158.427 148.79 158.592C149.184 158.757 149.501 159.003 149.742 159.328C149.988 159.654 150.111 160.061 150.111 160.547L148.34 160.541C148.344 160.355 148.314 160.192 148.251 160.052C148.187 159.912 148.09 159.805 147.959 159.728C147.827 159.652 147.66 159.614 147.457 159.614C147.296 159.614 147.136 159.646 146.975 159.709C146.818 159.769 146.683 159.857 146.569 159.976C146.454 160.094 146.382 160.24 146.353 160.414C146.327 160.558 146.348 160.676 146.416 160.769C146.484 160.862 146.575 160.939 146.689 160.998C146.803 161.053 146.924 161.099 147.051 161.138C147.178 161.171 147.292 161.199 147.394 161.22C147.766 161.317 148.13 161.442 148.486 161.595C148.841 161.747 149.131 161.961 149.355 162.236C149.579 162.507 149.683 162.868 149.666 163.321C149.653 163.706 149.552 164.036 149.361 164.311C149.171 164.582 148.926 164.804 148.625 164.978C148.329 165.147 148.007 165.27 147.66 165.346C147.318 165.426 146.981 165.465 146.651 165.46C146.19 165.452 145.756 165.359 145.35 165.181C144.948 165.003 144.622 164.745 144.372 164.407C144.123 164.064 143.996 163.645 143.991 163.15L145.667 163.156C145.671 163.376 145.716 163.562 145.8 163.715C145.885 163.867 146.006 163.983 146.162 164.064C146.323 164.14 146.514 164.178 146.734 164.178C146.907 164.182 147.078 164.159 147.248 164.108C147.421 164.057 147.571 163.975 147.698 163.861C147.825 163.742 147.906 163.588 147.94 163.397ZM157.924 162.045L155.531 162.039L155.792 160.554L157.988 160.56C158.301 160.56 158.589 160.505 158.851 160.395C159.114 160.281 159.329 160.116 159.499 159.9C159.668 159.684 159.776 159.413 159.822 159.087C159.865 158.812 159.85 158.565 159.778 158.345C159.706 158.125 159.579 157.947 159.397 157.811C159.215 157.676 158.98 157.602 158.693 157.589L156.96 157.583L155.614 165.333H153.754L155.354 156.091L158.75 156.098C159.338 156.11 159.863 156.237 160.324 156.478C160.785 156.715 161.141 157.054 161.39 157.494C161.644 157.93 161.746 158.457 161.695 159.075C161.64 159.747 161.431 160.304 161.067 160.744C160.703 161.184 160.243 161.512 159.689 161.728C159.139 161.939 158.551 162.045 157.924 162.045ZM165.358 155.583L163.669 165.333H161.879L163.568 155.583H165.358ZM169.007 163.785L169.49 160.706C169.511 160.52 169.503 160.346 169.465 160.185C169.426 160.025 169.348 159.898 169.23 159.805C169.115 159.707 168.952 159.654 168.741 159.646C168.55 159.642 168.379 159.675 168.227 159.747C168.079 159.815 167.956 159.915 167.859 160.046C167.761 160.173 167.694 160.325 167.655 160.503L165.865 160.515C165.887 160.135 165.992 159.807 166.183 159.532C166.377 159.252 166.623 159.024 166.919 158.846C167.215 158.668 167.537 158.537 167.884 158.452C168.235 158.368 168.578 158.33 168.912 158.338C169.39 158.347 169.816 158.446 170.188 158.637C170.565 158.827 170.853 159.1 171.051 159.455C171.255 159.807 171.331 160.234 171.28 160.738L170.804 163.683C170.766 163.928 170.736 164.187 170.715 164.457C170.694 164.724 170.732 164.978 170.829 165.219L170.817 165.333L169.065 165.34C168.984 165.09 168.944 164.834 168.944 164.572C168.948 164.305 168.969 164.043 169.007 163.785ZM169.693 161.15L169.522 162.185L168.614 162.179C168.432 162.183 168.25 162.208 168.068 162.255C167.89 162.297 167.725 162.365 167.573 162.458C167.421 162.547 167.294 162.663 167.192 162.807C167.095 162.951 167.033 163.126 167.008 163.334C166.987 163.482 167.002 163.615 167.052 163.734C167.103 163.848 167.181 163.939 167.287 164.007C167.397 164.074 167.528 164.11 167.681 164.115C167.897 164.119 168.108 164.079 168.316 163.994C168.523 163.905 168.703 163.78 168.855 163.619C169.007 163.459 169.113 163.272 169.173 163.061L169.553 163.854C169.452 164.091 169.323 164.309 169.166 164.508C169.014 164.707 168.838 164.881 168.639 165.029C168.44 165.173 168.222 165.283 167.986 165.359C167.749 165.439 167.495 165.477 167.224 165.473C166.847 165.465 166.5 165.376 166.183 165.206C165.87 165.033 165.62 164.798 165.434 164.502C165.252 164.201 165.169 163.852 165.186 163.454C165.203 163.006 165.315 162.633 165.523 162.337C165.73 162.037 165.997 161.8 166.322 161.626C166.653 161.453 167.01 161.33 167.395 161.258C167.785 161.182 168.17 161.144 168.55 161.144L169.693 161.15ZM174.543 160.033L173.622 165.333H171.832L173.026 158.465H174.701L174.543 160.033ZM174.016 161.658L173.571 161.671C173.618 161.26 173.711 160.854 173.851 160.452C173.99 160.05 174.181 159.688 174.422 159.367C174.667 159.041 174.966 158.785 175.317 158.598C175.673 158.412 176.085 158.323 176.555 158.332C176.936 158.345 177.249 158.425 177.494 158.573C177.744 158.717 177.934 158.912 178.066 159.157C178.201 159.403 178.288 159.68 178.326 159.989C178.368 160.298 178.372 160.619 178.339 160.953L177.602 165.333H175.806L176.549 160.934C176.574 160.71 176.568 160.511 176.529 160.338C176.491 160.164 176.407 160.027 176.276 159.925C176.149 159.824 175.962 159.771 175.717 159.766C175.446 159.758 175.211 159.809 175.012 159.919C174.818 160.029 174.653 160.177 174.517 160.363C174.382 160.549 174.274 160.755 174.194 160.979C174.113 161.203 174.054 161.43 174.016 161.658ZM182.173 165.46C181.703 165.452 181.28 165.363 180.903 165.194C180.526 165.02 180.211 164.783 179.957 164.483C179.708 164.182 179.523 163.833 179.405 163.435C179.286 163.038 179.244 162.61 179.278 162.153L179.303 161.893C179.354 161.415 179.471 160.96 179.653 160.528C179.834 160.097 180.078 159.716 180.382 159.386C180.687 159.051 181.047 158.791 181.462 158.605C181.881 158.414 182.346 158.326 182.858 158.338C183.336 158.347 183.745 158.444 184.083 158.63C184.422 158.816 184.695 159.066 184.902 159.379C185.109 159.692 185.251 160.05 185.327 160.452C185.403 160.85 185.418 161.267 185.372 161.702L185.27 162.464H179.964L180.16 161.245L183.664 161.252L183.696 161.093C183.73 160.86 183.719 160.645 183.664 160.446C183.609 160.243 183.506 160.08 183.353 159.957C183.201 159.834 182.998 159.769 182.744 159.76C182.452 159.752 182.206 159.813 182.007 159.944C181.809 160.075 181.646 160.249 181.519 160.465C181.392 160.681 181.294 160.915 181.227 161.169C181.159 161.419 181.11 161.66 181.081 161.893L181.055 162.147C181.034 162.371 181.041 162.595 181.074 162.82C181.108 163.04 181.174 163.239 181.271 163.416C181.373 163.594 181.51 163.738 181.684 163.848C181.861 163.958 182.084 164.017 182.35 164.026C182.689 164.034 183 163.969 183.283 163.829C183.571 163.685 183.829 163.495 184.058 163.258L184.858 164.223C184.667 164.51 184.424 164.747 184.128 164.933C183.836 165.115 183.52 165.249 183.182 165.333C182.843 165.422 182.507 165.465 182.173 165.46ZM190.234 158.465L190.006 159.76H186.114L186.343 158.465H190.234ZM187.6 156.77H189.383L188.266 163.277C188.249 163.425 188.249 163.552 188.266 163.658C188.287 163.759 188.336 163.837 188.412 163.892C188.488 163.947 188.607 163.979 188.768 163.988C188.857 163.992 188.945 163.99 189.034 163.981C189.123 163.969 189.214 163.956 189.307 163.943L189.18 165.308C189.011 165.359 188.84 165.395 188.666 165.416C188.497 165.441 188.323 165.454 188.146 165.454C187.739 165.445 187.405 165.357 187.143 165.187C186.885 165.018 186.698 164.785 186.584 164.489C186.474 164.189 186.438 163.842 186.476 163.448L187.6 156.77Z"
        fill="white"
        />
    <line
        stroke="#BE1931"
        stroke-width="3.25"
        x1="115.167"
        x2="153.083"
        y1="173.375"
        y2="173.375"
        />
    <line
        stroke="#300489"
        stroke-width="3.25"
        x1="115.167"
        x2="191"
        y1="147.375"
        y2="147.375"
        />
</svg>
